<svg xmlns="http://www.w3.org/2000/svg" version="1.1" xmlns:xlink="http://www.w3.org/1999/xlink" xmlns:svgjs="http://svgjs.com/svgjs" width="540" height="508"><svg id="SvgjsSvg1002" width="2" height="0" focusable="false" style="overflow: hidden; top: -100%; left: -100%; position: absolute; opacity: 0"><polyline id="SvgjsPolyline1003" points="0,0"></polyline><path id="SvgjsPath1004" d="M0 0 "></path></svg><defs id="SvgjsDefs16573"></defs><defs id="SvgjsDefs16574"><style>
			.lo-name path, .lo-name {
				fill: #151515;
			}
			.lo-tagline path, .lo-tagline {
				fill: #343a40;
			}
			.lo-icon path, .lo-icon {
				fill: #ffffff;
			}
			.lo-shape path, .lo-shape {
				fill: #151515;
			}
		</style></defs><g id="SvgjsG16575" fill="#151515" class="lo-shape"><title>graphic</title><g id="Слой_2" data-name="Слой 2"><g id="Слой_1-2" data-name="Слой 1"><path transform="translate(155, 106) scale(0.6,0.6)" d="M217.37,22.56l4.74-4.74a10.43,10.43,0,0,0,0-14.76h0a10.43,10.43,0,0,0-14.76,0L202.61,7.8a10.45,10.45,0,0,0,0,14.76h0A10.45,10.45,0,0,0,217.37,22.56Z" /><path transform="translate(155, 106) scale(0.6,0.6)" d="M87.58,314a10.45,10.45,0,0,0-14.76,0l-7,7.06a10.43,10.43,0,0,0,14.76,14.75l7-7.05A10.43,10.43,0,0,0,87.58,314Z" /><path transform="translate(155, 106) scale(0.6,0.6)" d="M353.06,152.55l-7.05,7a10.44,10.44,0,1,0,14.76,14.76l7.05-7.05a10.44,10.44,0,0,0-14.76-14.76Z" /><path transform="translate(155, 106) scale(0.6,0.6)" d="M31.42,267.54l3.73-3.72a10.44,10.44,0,0,0-14.76-14.76l-3.73,3.72a10.44,10.44,0,1,0,14.76,14.76Z" /><path transform="translate(155, 106) scale(0.6,0.6)" d="M322.11,65.41,309.6,77.92a10.44,10.44,0,0,1-14.76-14.76l11.39-11.39A10.44,10.44,0,0,0,291.47,37L268.3,60.18a10.43,10.43,0,0,1-14.76-14.75l16.91-16.92a10.43,10.43,0,0,0,0-14.76h0a10.45,10.45,0,0,0-14.76,0L208.62,60.82a10.44,10.44,0,0,1-14.76-14.76l1.27-1.26A10.44,10.44,0,0,0,180.37,30L158.58,51.83a10.44,10.44,0,0,1-14.76-14.77l8.36-8.36a10.44,10.44,0,1,0-14.76-14.76L11,140.33A10.44,10.44,0,0,0,25.79,155.1l7.52-7.53a10.44,10.44,0,1,1,14.76,14.77l-45,45a10.44,10.44,0,1,0,14.76,14.76l23.74-23.74a10.44,10.44,0,0,1,14.76,14.76L40.78,228.66a10.45,10.45,0,0,0,0,14.76h0a10.43,10.43,0,0,0,14.76,0l5.68-5.68A10.44,10.44,0,0,1,76,252.5L40.93,287.55a10.44,10.44,0,0,0,14.76,14.76l29.15-29.14a10.43,10.43,0,0,1,14.75,14.76l-8,8a10.44,10.44,0,0,0,14.76,14.76L131.09,286a10.49,10.49,0,0,1,13.79,15.75l-39.64,39.64A10.44,10.44,0,1,0,120,356.1l49.71-49.71a10.43,10.43,0,0,1,14.75,14.76l-28.15,28.16a10.44,10.44,0,0,0,14.76,14.76l49.35-49.36a10.7,10.7,0,0,1,11.18,2.57,10.46,10.46,0,0,1,.14,14.89L221,342.92a10.7,10.7,0,0,0,15.13,15.13l122.7-122.7a10.7,10.7,0,0,0-15.12-15.13l-9.32,9.31a10.47,10.47,0,0,1-14.9-.14,10.69,10.69,0,0,1-2.56-11.17l24.72-24.73a10.43,10.43,0,0,0-14.75-14.76l-12.54,12.54a10.44,10.44,0,0,1-14.76-14.76L359,117.08a10.44,10.44,0,1,0-14.76-14.76l-13.33,13.33a10.49,10.49,0,0,1-15.75-13.79l21.69-21.69a10.44,10.44,0,1,0-14.76-14.76Z" /><path transform="translate(155, 106) scale(0.6,0.6)" d="M84.37,56.22l9.45-9.44A12.4,12.4,0,1,0,76.28,29.24l-9.44,9.45A12.4,12.4,0,0,0,84.37,56.22Z" /><path transform="translate(155, 106) scale(0.6,0.6)" d="M290.9,317.26l-12.06,12.07c-5,5-5.42,13.27-.47,18.38a12.86,12.86,0,0,0,18.34.14l12.07-12.06c5-5,5.41-13.28.47-18.38A12.88,12.88,0,0,0,290.9,317.26Z" /></g></g></g><g id="SvgjsG16576" fill="#ffffff" class="lo-icon">
	<path transform="translate(207, 161) scale(0.6,0.6)" d="M 6.096 61.904 C 3.491 64.509, 3.476 65.476, 6 68 C 8.213 70.213, 10.223 70.357, 20.485 69.035 C 24.326 68.540, 27.598 68.264, 27.755 68.421 C 27.912 68.579, 26.397 72.167, 24.389 76.396 C 21.036 83.457, 20.777 84.634, 21.221 90.793 C 21.788 98.663, 25.752 107.474, 29.491 109.178 C 33.148 110.844, 37.390 108.679, 39.460 104.089 L 41.159 100.322 49.316 101.730 C 53.802 102.505, 57.588 103.254, 57.728 103.395 C 57.869 103.536, 55.273 110.367, 51.959 118.576 C 45.809 133.807, 45.159 137.459, 48.250 139.394 C 51.467 141.408, 53.367 138.635, 60.402 121.657 C 67.276 105.069, 68.303 103.636, 71.751 105.825 C 72.698 106.426, 71.994 109.114, 68.855 116.878 C 65.006 126.401, 64.827 127.255, 66.354 128.783 C 68.702 131.131, 69.937 129.483, 74.437 118 C 76.485 112.775, 78.515 108.131, 78.950 107.680 C 79.384 107.229, 81.371 107.167, 83.366 107.541 L 86.992 108.221 84.536 111.140 C 81.894 114.279, 80.637 118.929, 81.168 123.592 C 81.436 125.939, 81.983 126.500, 84 126.500 C 86.309 126.500, 86.523 126.101, 86.801 121.282 C 87.228 113.881, 89.802 112, 99.500 112 C 109.198 112, 111.772 113.881, 112.199 121.282 C 112.477 126.101, 112.691 126.500, 115 126.500 C 117.398 126.500, 117.500 126.248, 117.493 120.308 C 117.486 114.878, 117.137 113.752, 114.654 111.161 L 111.823 108.206 116.007 107.499 C 118.309 107.110, 120.536 107.176, 120.957 107.646 C 121.378 108.116, 123.440 112.899, 125.540 118.276 C 129.829 129.257, 131.282 131.147, 133.631 128.798 C 135.005 127.424, 134.737 126.233, 131.012 117.149 C 128.730 111.584, 127.146 106.574, 127.491 106.015 C 127.836 105.457, 129.104 105.011, 130.309 105.024 C 132.202 105.045, 133.451 107.388, 139.500 122.274 C 145.484 136.999, 146.835 139.547, 148.805 139.827 C 151.508 140.210, 153.999 138.438, 154.003 136.128 C 154.005 135.232, 151.249 127.618, 147.879 119.208 C 144.509 110.797, 141.978 103.688, 142.256 103.411 C 142.533 103.134, 146.076 102.343, 150.130 101.655 L 157.500 100.403 159.515 103.921 C 164.443 112.527, 170.333 111.704, 175.040 101.753 C 179.313 92.721, 179.162 85.867, 174.472 76.083 C 172.532 72.034, 171.115 68.552, 171.323 68.344 C 171.531 68.136, 174.806 68.415, 178.600 68.963 C 191.444 70.820, 195 69.844, 195 64.464 C 195 60.281, 192.127 59.668, 178.974 61.044 C 169.656 62.018, 164.849 62.022, 156.128 61.059 C 150.053 60.388, 144.164 60.131, 143.040 60.487 C 138.202 62.023, 138.473 68.328, 143.431 69.572 C 144.737 69.900, 149.558 69.714, 154.145 69.160 C 158.732 68.605, 162.605 68.271, 162.751 68.418 C 162.898 68.565, 161.170 72.628, 158.911 77.448 C 155.061 85.665, 154.640 86.180, 152.152 85.708 C 150.694 85.431, 138.229 83.291, 124.452 80.951 L 99.405 76.697 72.783 81.348 C 58.141 83.906, 45.450 85.726, 44.581 85.393 C 43.711 85.059, 43 84.259, 43 83.615 C 43 82.971, 41.418 79.142, 39.484 75.108 L 35.969 67.772 39.234 68.342 C 41.030 68.656, 45.710 69.210, 49.632 69.574 C 56.058 70.170, 56.975 70.025, 58.882 68.118 C 61.528 65.472, 61.532 64.532, 58.904 61.904 C 56.962 59.962, 56.212 59.871, 48.654 60.654 C 38.277 61.731, 26.723 61.731, 16.346 60.654 C 8.788 59.871, 8.038 59.962, 6.096 61.904 M 91.223 114.557 C 89.229 115.953, 89 116.969, 89 124.434 C 89 134.968, 89.540 135.500, 100.234 135.500 C 110.185 135.500, 111 134.653, 111 124.309 C 111 114.471, 109.598 113, 100.223 113 C 95.707 113, 92.703 113.520, 91.223 114.557 M 96.517 120.625 C 93.932 123.211, 94.910 128.258, 98.220 129.414 C 103.686 131.325, 107.518 123.877, 102.777 120.557 C 99.954 118.579, 98.549 118.594, 96.517 120.625" stroke="none"  fill-rule="evenodd"/>
</g><path id="SvgjsPath16577" d="M21.05-52.67L7.79-52.67L7.79 0L21.05 0C30.82 0 35.05-3.17 35.05-8.84L35.05-43.82C35.05-49.50 30.82-52.67 21.05-52.67ZM21.05-5.35L14.59-5.35L14.59-47.32L21.05-47.32C26.60-47.32 28.31-46.07 28.31-43.82L28.31-8.84C28.31-6.60 26.60-5.35 21.05-5.35ZM69.83-35.97C69.70-38.28 68.44-39.07 66.79-39.01C62.83-38.81 59.66-37.82 57.16-36.17L57.16-36.43C57.16-37.88 56.50-38.94 53.92-38.94C51.41-38.94 50.69-37.88 50.69-36.43L50.69-1.65C50.69-0.20 51.35 0.86 53.92 0.86C56.43 0.86 57.16-0.20 57.16-1.65L57.16-29.77C57.16-33.13 60.39-33.46 67.39-32.54C68.77-32.34 69.89-33.26 69.83-35.97ZM99.07-38.87C89.69-38.87 85.40-35.77 85.40-30.29L85.40-7.79C85.40-2.31 89.69 0.86 99.07 0.86C108.37 0.86 112.66-2.31 112.66-7.79L112.66-30.29C112.66-35.77 108.37-38.87 99.07-38.87ZM99.07-4.36C93.59-4.36 91.87-5.15 91.87-7.79L91.87-30.29C91.87-32.87 93.59-33.66 99.07-33.66C104.48-33.66 106.19-32.87 106.19-30.29L106.19-7.79C106.19-5.15 104.48-4.36 99.07-4.36ZM143.95-38.87C140.05-38.87 136.95-37.88 134.71-36.43C134.71-37.75 133.91-38.81 131.47-38.81C128.90-38.81 128.24-37.75 128.24-36.37L128.24-1.65C128.24-0.20 128.96 0.86 131.47 0.86C134.05 0.86 134.71-0.20 134.71-1.65L134.71-30.49C134.71-32.93 137.21-33.92 141.90-33.92C147.38-33.92 149.09-32.80 149.09-30.49L149.09-1.65C149.09-0.20 149.75 0.86 152.33 0.86C154.84 0.86 155.50-0.20 155.50-1.65L155.50-30.49C155.50-36.23 151.07-38.87 143.95-38.87ZM174.11-18.94L195.43-18.94C196.48-18.94 197.21-19.40 197.21-21.38C197.21-23.30 196.48-23.76 195.43-23.76L174.11-23.76C173.05-23.76 172.39-23.30 172.39-21.38C172.39-19.40 173.05-18.94 174.11-18.94ZM227.70 0.86C237.14 0.86 241.36-2.11 241.36-7.72L241.36-20.66C241.36-26.14 237.14-29.24 227.70-29.24C222.49-29.24 220.84-30.16 220.84-32.47L220.84-44.95C220.84-47.26 222.49-48.18 227.70-48.18C232.98-48.18 234.63-47.26 234.63-44.95L234.63-37.82C234.63-36.30 235.36-35.44 238.00-35.44C240.70-35.44 241.36-36.30 241.36-37.88L241.36-44.95C241.36-50.56 237.14-53.53 227.70-53.53C218.33-53.53 214.10-50.56 214.10-44.95L214.10-32.47C214.10-26.93 218.33-23.89 227.70-23.89C232.98-23.89 234.63-22.90 234.63-20.66L234.63-7.72C234.63-5.41 232.98-4.49 227.70-4.49C222.49-4.49 220.84-5.41 220.84-7.72L220.84-14.78C220.84-16.37 220.11-17.23 217.47-17.23C214.76-17.23 214.04-16.37 214.04-14.85L214.04-7.72C214.04-2.11 218.33 0.86 227.70 0.86ZM276.80-38.08L271.00-38.08L271.00-47.26C271.00-48.71 270.40-49.76 267.83-49.76C265.25-49.76 264.59-48.71 264.59-47.26L264.59-38.08L258.79-38.08C257.73-38.08 257.00-37.62 257.00-35.71C257.00-33.73 257.73-33.26 258.79-33.26L264.59-33.26L264.59-1.65C264.59-0.20 265.25 0.86 267.83 0.86C270.34 0.86 271.00-0.20 271.00-1.65L271.00-33.26L276.80-33.26C277.86-33.26 278.52-33.73 278.52-35.71C278.52-37.62 277.86-38.08 276.80-38.08ZM307.82-38.87C298.45-38.87 294.16-35.77 294.16-30.29L294.16-7.79C294.16-2.31 298.45 0.86 307.82 0.86C317.13 0.86 321.42-2.31 321.42-7.79L321.42-30.29C321.42-35.77 317.13-38.87 307.82-38.87ZM307.82-4.36C302.35-4.36 300.63-5.15 300.63-7.79L300.63-30.29C300.63-32.87 302.35-33.66 307.82-33.66C313.24-33.66 314.95-32.87 314.95-30.29L314.95-7.79C314.95-5.15 313.24-4.36 307.82-4.36ZM356.14-35.97C356.00-38.28 354.75-39.07 353.10-39.01C349.14-38.81 345.97-37.82 343.46-36.17L343.46-36.43C343.46-37.88 342.80-38.94 340.23-38.94C337.72-38.94 337.00-37.88 337.00-36.43L337.00-1.65C337.00-0.20 337.66 0.86 340.23 0.86C342.74 0.86 343.46-0.20 343.46-1.65L343.46-29.77C343.46-33.13 346.70-33.46 353.69-32.54C355.08-32.34 356.20-33.26 356.14-35.97ZM395.74-16.76C398.05-16.76 398.97-17.89 398.97-19.07L398.97-30.36C398.97-35.84 394.68-38.94 385.37-38.94C376.00-38.94 371.71-35.84 371.71-30.36L371.71-7.52C371.71-1.98 376.07 0.86 385.37 0.86C394.15 0.86 398.90-1.98 398.97-7.46L398.97-8.78C398.97-9.97 398.31-11.09 395.80-11.09C393.49-11.09 392.57-9.97 392.57-8.78L392.57-7.52C392.57-5.15 390.79-4.09 385.37-4.09C379.90-4.09 378.18-5.15 378.18-7.52L378.18-16.76ZM385.37-33.73C390.79-33.73 392.50-32.93 392.50-30.36L392.50-21.58L378.18-21.58L378.18-30.36C378.18-32.93 379.90-33.73 385.37-33.73Z" fill="#151515" transform="matrix(1,0,0,1,57.62,398.335)" class="lo-name"></path></svg>